<svg width="288" height="144" viewBox="0 0 288 144" fill="none" xmlns="http://www.w3.org/2000/svg">
<path d="M0 8C0 3.58173 3.58172 0 8 0H280C284.418 0 288 3.58172 288 8V136C288 140.418 284.418 144 280 144H8C3.58173 144 0 140.418 0 136V8Z" fill="#1E1928" fill-opacity="0.08"/>
<g clip-path="url(#clip0_1_1375)">
<path fill-rule="evenodd" clip-rule="evenodd" d="M99 57.7625V65.525H106.595H114.19V80.2625V95H121.614H129.037V80.2625V65.525H136.632H144.228V80.2625V95H166.614H189L188.97 87.4906L188.941 79.9811L173.951 79.9526L158.961 79.9241V72.725V65.5258L173.951 65.4973L188.941 65.4688L188.97 57.7344L189 50H173.98H158.961V57.7063V65.4125H151.594H144.228V57.7063V50H121.614H99V57.7625Z" fill="#666565"/>
</g>
<defs>
<clipPath id="clip0_1_1375">
<rect width="230" height="96" fill="white" transform="translate(29 24)"/>
</clipPath>
</defs>
</svg>
